<svg xmlns="http://www.w3.org/2000/svg" viewBox="0 0 575.63 105.67">
  <title>MorseSVG2</title>
  <g id="Layer_2" data-name="Layer 2">
    <g id="Layer_1-2" data-name="Layer 1">
      <path d="M72.31,0H30A30,30,0,0,0,0,30v75.67H26.65V57.33h6v48.33h37V57.33h6v48.33h26.65V30A30,30,0,0,0,72.31,0Z" style="fill: #ffcc09"/>
      <path d="M190.85,0H148.72a30.18,30.18,0,0,0-30.18,30.18V90.67a15,15,0,0,0,15,15h72.31a15,15,0,0,0,15-15V30A30,30,0,0,0,190.85,0ZM175.69,88.5h-6v-45h6Z" style="fill: #ffcc09"/>
      <path d="M278.06,87.33a30,30,0,0,1,30-30h29.82V30a30,30,0,0,0-30-30H265.58a30,30,0,0,0-30,30V90.67a15,15,0,0,0,15,15h27.49Z" style="fill: #ffcc09"/>
      <path d="M406.51,49.59a3,3,0,0,1,0-6h47.58V30a30,30,0,0,0-30-30H381.78a30,30,0,0,0-30,30V82.5h30.6a3,3,0,0,1,0,6h-30.6v17.17h87.31a15,15,0,0,0,15-15V49.59Z" style="fill: #ffcc09"/>
      <path d="M527.47,88.5a3,3,0,0,1,0-6h48.15V30a30,30,0,0,0-30-30H503.32a30,30,0,0,0-30,30V90.67a15,15,0,0,0,15,15h72.31a15,15,0,0,0,15-15V88.5Zm0-44.91h33.09a3,3,0,0,1,0,6H527.47a3,3,0,0,1,0-6Z" style="fill: #ffcc09"/>
    </g>
  </g>
</svg>
